<svg width="118" height="12" viewBox="0 0 118 12" fill="none" xmlns="http://www.w3.org/2000/svg">
<path d="M0.96 1.985C0.96 1.865 0.94 1.77 0.9 1.7C0.86 1.63 0.805 1.56 0.735 1.49C0.675 1.43 0.63 1.38 0.6 1.34C0.58 1.29 0.57 1.23 0.57 1.16C0.57 1.1 0.575 1.055 0.585 1.025C0.645 0.805 0.755 0.62 0.915 0.47C1.085 0.309999 1.28 0.229999 1.5 0.229999C1.74 0.229999 1.96 0.319999 2.16 0.499999H4.23C5.61 0.499999 6.66 0.774999 7.38 1.325C8.1 1.865 8.46 2.685 8.46 3.785C8.46 4.695 8.205 5.415 7.695 5.945C7.185 6.475 6.47 6.795 5.55 6.905L8.235 11H6.225L3.615 7.04H2.73V11H0.96V1.985ZM4.275 5.525C5.085 5.525 5.685 5.395 6.075 5.135C6.465 4.865 6.66 4.415 6.66 3.785C6.66 3.155 6.46 2.705 6.06 2.435C5.67 2.165 5.075 2.03 4.275 2.03H2.73V5.525H4.275ZM10.2581 2.195C10.2581 1.995 10.2281 1.845 10.1681 1.745C10.1181 1.635 10.0481 1.535 9.95809 1.445C9.89809 1.375 9.85309 1.32 9.82309 1.28C9.80309 1.23 9.80809 1.165 9.83809 1.085C9.90809 0.875 10.0231 0.679999 10.1831 0.499999C10.3531 0.319999 10.5331 0.229999 10.7231 0.229999C10.9031 0.229999 11.0831 0.319999 11.2631 0.499999H16.6781V2.03H12.0281V4.76H15.4181V6.23H12.0281V9.47H16.8131V11H10.2581V2.195ZM23.5526 11.15C23.3426 11.15 23.1626 11.105 23.0126 11.015C22.8726 10.925 22.7776 10.8 22.7276 10.64L20.5826 3.995L19.9376 11.015H18.1526L19.1876 1.445L19.1126 1.31C19.0626 1.21 19.0376 1.105 19.0376 0.994999C19.0376 0.794999 19.1126 0.62 19.2626 0.47C19.4226 0.309999 19.6526 0.229999 19.9526 0.229999C20.3126 0.229999 20.5726 0.299999 20.7326 0.439999C20.9026 0.579999 21.0376 0.804999 21.1376 1.115L23.5076 8.42L25.8776 1.115C25.9876 0.794999 26.1226 0.569999 26.2826 0.439999C26.4526 0.299999 26.7176 0.229999 27.0776 0.229999C27.3776 0.229999 27.6026 0.304999 27.7526 0.455C27.9126 0.605 27.9926 0.78 27.9926 0.979999C27.9926 1.11 27.9626 1.22 27.9026 1.31L27.8426 1.43L28.8626 11.015H27.0776L26.4326 3.98L24.4676 10.1L24.5126 10.25C24.5326 10.35 24.5426 10.42 24.5426 10.46C24.5426 10.67 24.4476 10.84 24.2576 10.97C24.0676 11.09 23.8326 11.15 23.5526 11.15ZM34.3673 11.15C33.4173 11.15 32.5973 10.93 31.9073 10.49C31.2273 10.04 30.7073 9.41 30.3473 8.6C29.9973 7.79 29.8223 6.84 29.8223 5.75C29.8223 4.66 29.9973 3.71 30.3473 2.9C30.7073 2.09 31.2273 1.465 31.9073 1.025C32.5973 0.575 33.4173 0.349999 34.3673 0.349999C35.3273 0.349999 36.1473 0.575 36.8273 1.025C37.5073 1.465 38.0223 2.09 38.3723 2.9C38.7323 3.71 38.9123 4.66 38.9123 5.75C38.9123 6.84 38.7323 7.79 38.3723 8.6C38.0223 9.41 37.5073 10.04 36.8273 10.49C36.1473 10.93 35.3273 11.15 34.3673 11.15ZM34.3673 9.695C35.2773 9.695 35.9623 9.345 36.4223 8.645C36.8823 7.945 37.1123 6.98 37.1123 5.75C37.1123 4.52 36.8823 3.555 36.4223 2.855C35.9623 2.155 35.2773 1.805 34.3673 1.805C33.4673 1.805 32.7823 2.155 32.3123 2.855C31.8523 3.555 31.6223 4.52 31.6223 5.75C31.6223 6.98 31.8523 7.945 32.3123 8.645C32.7823 9.345 33.4673 9.695 34.3673 9.695ZM42.5428 2.03H39.5428V0.499999H47.3128V2.03H44.3128V11H42.5428V2.03ZM49.0561 2.195C49.0561 1.995 49.0261 1.845 48.9661 1.745C48.9161 1.635 48.8461 1.535 48.7561 1.445C48.6961 1.375 48.6511 1.32 48.6211 1.28C48.6011 1.23 48.6061 1.165 48.6361 1.085C48.7061 0.875 48.8211 0.679999 48.9811 0.499999C49.1511 0.319999 49.3311 0.229999 49.5211 0.229999C49.7011 0.229999 49.8811 0.319999 50.0611 0.499999H55.4761V2.03H50.8261V4.76H54.2161V6.23H50.8261V9.47H55.6111V11H49.0561V2.195ZM70.2446 1.04C70.4446 0.499999 70.7946 0.229999 71.2946 0.229999C71.6146 0.229999 71.8696 0.299999 72.0596 0.439999C72.2496 0.579999 72.3446 0.759999 72.3446 0.979999C72.3446 1.04 72.3246 1.13 72.2846 1.25L75.8996 11H74.0396L73.0496 8.195H69.3896L68.3996 11H66.5546L70.2446 1.04ZM72.6596 6.785L71.2346 2.69L69.8096 6.785H72.6596ZM77.6786 2.195C77.6786 1.995 77.6486 1.845 77.5886 1.745C77.5386 1.635 77.4686 1.535 77.3786 1.445C77.3186 1.375 77.2736 1.32 77.2436 1.28C77.2236 1.23 77.2286 1.165 77.2586 1.085C77.3286 0.875 77.4436 0.679999 77.6036 0.499999C77.7736 0.319999 77.9536 0.229999 78.1436 0.229999C78.3236 0.229999 78.5036 0.319999 78.6836 0.499999H84.0986V2.03H79.4486V4.955H82.8386V6.41H79.4486V11H77.6786V2.195ZM85.8313 1.985C85.8313 1.865 85.8113 1.77 85.7713 1.7C85.7313 1.63 85.6763 1.56 85.6063 1.49C85.5463 1.43 85.5013 1.38 85.4713 1.34C85.4513 1.29 85.4413 1.23 85.4413 1.16C85.4413 1.1 85.4463 1.055 85.4563 1.025C85.5163 0.805 85.6263 0.62 85.7863 0.47C85.9563 0.309999 86.1513 0.229999 86.3713 0.229999C86.6113 0.229999 86.8313 0.319999 87.0313 0.499999H89.1013C90.4813 0.499999 91.5313 0.774999 92.2513 1.325C92.9713 1.865 93.3313 2.685 93.3313 3.785C93.3313 4.695 93.0763 5.415 92.5663 5.945C92.0563 6.475 91.3413 6.795 90.4213 6.905L93.1063 11H91.0963L88.4863 7.04H87.6013V11H85.8313V1.985ZM89.1463 5.525C89.9563 5.525 90.5563 5.395 90.9463 5.135C91.3363 4.865 91.5313 4.415 91.5313 3.785C91.5313 3.155 91.3313 2.705 90.9313 2.435C90.5413 2.165 89.9463 2.03 89.1463 2.03H87.6013V5.525H89.1463ZM95.4594 0.499999H97.2294V11H95.4594V0.499999ZM104.357 11.15C103.307 11.15 102.407 10.935 101.657 10.505C100.907 10.065 100.332 9.44 99.9321 8.63C99.5421 7.82 99.3471 6.855 99.3471 5.735C99.3471 4.625 99.5371 3.665 99.9171 2.855C100.307 2.045 100.867 1.425 101.597 0.994999C102.337 0.564999 103.217 0.349999 104.237 0.349999C104.917 0.349999 105.542 0.469999 106.112 0.709999C106.692 0.939999 107.162 1.265 107.522 1.685L106.832 2.9C106.482 2.53 106.107 2.255 105.707 2.075C105.317 1.895 104.827 1.805 104.237 1.805C103.257 1.805 102.497 2.155 101.957 2.855C101.417 3.545 101.147 4.505 101.147 5.735C101.147 6.975 101.427 7.945 101.987 8.645C102.557 9.345 103.357 9.695 104.387 9.695C104.897 9.695 105.347 9.61 105.737 9.44C106.127 9.27 106.482 9.005 106.802 8.645L107.852 9.635C107.452 10.105 106.937 10.475 106.307 10.745C105.687 11.015 105.037 11.15 104.357 11.15ZM112.187 1.04C112.387 0.499999 112.737 0.229999 113.237 0.229999C113.557 0.229999 113.812 0.299999 114.002 0.439999C114.192 0.579999 114.287 0.759999 114.287 0.979999C114.287 1.04 114.267 1.13 114.227 1.25L117.842 11H115.982L114.992 8.195H111.332L110.342 11H108.497L112.187 1.04ZM114.602 6.785L113.177 2.69L111.752 6.785H114.602Z" fill="#111111"/>
<path d="M62.1557 8.825H57.5957C57.3557 8.825 57.1607 8.765 57.0107 8.645C56.8707 8.515 56.8007 8.355 56.8007 8.165C56.8007 7.965 56.8707 7.79 57.0107 7.64L62.6957 0.724999C62.9057 0.484999 63.1257 0.364999 63.3557 0.364999C63.5357 0.364999 63.7107 0.429999 63.8807 0.559999C64.1407 0.77 64.2707 0.97 64.2707 1.16C64.2707 1.28 64.2207 1.405 64.1207 1.535L63.9257 1.805V7.415H65.2757V8.825H63.9257V11H62.1557V8.825ZM62.2457 7.415V3.56L59.0807 7.415H62.2457Z" fill="#FD2648"/>
</svg>
